<svg viewBox="0 0 512 512" xml:space="preserve" xmlns="http://www.w3.org/2000/svg" enable-background="new 0 0 512 512"><circle cx="256" cy="256" r="253.44" fill="#eb2a2a" class="fill-000000"></circle><path d="m350.019 144.066 17.521 17.522c6.047 6.047 6.047 15.852 0 21.9L183.607 367.419c-6.047 6.048-15.852 6.047-21.9 0l-17.521-17.522c-6.047-6.047-6.047-15.852 0-21.9l183.932-183.933c6.048-6.046 15.853-6.046 21.901.002z" fill="#ffffff" class="fill-ffffff"></path><path d="m367.54 349.899-17.522 17.522c-6.047 6.047-15.852 6.047-21.9 0L144.186 183.488c-6.047-6.047-6.047-15.852 0-21.9l17.522-17.522c6.047-6.047 15.852-6.047 21.9 0L367.54 327.999c6.048 6.048 6.048 15.853 0 21.9z" fill="#ffffff" class="fill-ffffff"></path></svg>